#!OML:ASF F:\VICON\USERDATA\INSTALL\rory3\rory3.ASF
:FULLY-SPECIFIED
:DEGREES
1
root 2.8914 16.7375 -0.0292059 14.507 6.17542 11.7237
lowerback -6.07636 1.27834 0.513494
upperback -1.3358 1.88447 -7.5203
thorax 2.30357 0.983564 -8.03564
lowerneck -1.70151 15.0357 5.683
upperneck 47.3168 25.1144 -2.16944
head 20.0088 11.0086 2.17183
rclavicle -2.53947e-014 -6.75868e-015
rhumerus -35.9381 5.46496 -94.0953
rradius 42.734
rwrist -35.796
rhand -8.78251 -50.5882
rfingers 7.12502
rthumb 17.1558 -79.8508
lclavicle -2.53947e-014 -6.75868e-015
lhumerus -27.5495 -20.79 82.1726
lradius 41.9951
lwrist 72.6259
lhand -38.2861 -14.7144
lfingers 7.12502
lthumb -11.3152 14.9604
rfemur -48.9741 23.4701 -5.96064
rtibia 74.0437
rfoot 2.57126 9.87051
rtoes -42.3425
lfemur -30.7124 -7.3105 -36.6412
ltibia 37.7976
lfoot -16.7923 10.0239
ltoes 5.29802
2
root 2.89803 16.7158 -0.0531179 15.395 4.81245 11.358
lowerback -6.70077 1.73486 0.698438
upperback -1.79738 2.47964 -7.5349
thorax 2.26628 1.27477 -8.09716
lowerneck -1.62437 15.0593 5.68819
upperneck 47.3392 25.154 -2.16255
head 20.0076 11.0294 2.17413
rclavicle 1.82882e-014 -2.14687e-014
rhumerus -36.0327 5.62328 -94.1881
rradius 42.7787
rwrist -36.2421
rhand -9.74436 -49.8783
rfingers 7.12502
rthumb 16.2298 -79.2189
lclavicle 1.82882e-014 -2.14687e-014
lhumerus -27.6243 -20.7675 82.202
lradius 41.9766
lwrist 72.5632
lhand -38.2548 -15.211
lfingers 7.12502
lthumb -11.285 14.4655
rfemur -51.1494 23.8803 -6.8193
rtibia 74.1889
rfoot 2.9051 10.4211
rtoes -42.2009
lfemur -32.4538 -6.68637 -36.4492
ltibia 38.4692
lfoot -17.0086 10.3527
ltoes 6.453
3
root 2.9015 16.7204 -0.0521866 15.382 4.91326 11.3735
lowerback -6.72008 1.70695 0.753043
upperback -1.77851 2.44028 -7.5318
thorax 2.29304 1.25618 -8.12908
lowerneck -1.61786 15.054 5.67876
upperneck 47.3812 25.1482 -2.14254
head 20.0283 11.026 2.18538
rclavicle 1.53064e-014 -6.99722e-014
rhumerus -36.0547 5.78141 -94.2706
rradius 42.805
rwrist -36.7603
rhand -10.654 -49.4221
rfingers 7.12502
rthumb 15.3538 -78.8321
lclavicle 1.53064e-014 -6.99722e-014
lhumerus -27.6762 -20.7474 82.2214
lradius 42.0169
lwrist 72.5597
lhand -39.3936 -12.5387
lfingers 7.12502
lthumb -12.3831 17.0745
rfemur -51.0148 23.7892 -6.7763
rtibia 74.1582
rfoot 2.77223 10.4689
rtoes -42.5118
lfemur -32.4452 -6.85353 -36.4313
ltibia 38.4957
lfoot -17.048 10.2763
ltoes 7.28345
4
root 2.9002 16.7208 -0.0503237 15.3437 4.96364 11.3779
lowerback -6.7228 1.68829 0.732311
upperback -1.73297 2.41895 -7.51664
thorax 2.33738 1.24702 -8.10199
lowerneck -1.75611 15.0451 5.59834
upperneck 47.4244 25.1204 -2.06958
head 20.0551 11.0003 2.24013
rclavicle -4.8901e-014 2.14687e-014
rhumerus -35.9649 5.70416 -94.1864
rradius 42.7148
rwrist -36.2905
rhand -9.67658 -50.101
rfingers 7.12502
rthumb 16.2951 -79.4363
lclavicle -4.8901e-014 2.14687e-014
lhumerus -27.6932 -20.7514 82.2245
lradius 42.1104
lwrist 72.6177
lhand -38.5599 -15.0346
lfingers 7.12502
lthumb -11.5792 14.6255
rfemur -50.9486 23.8114 -6.74085
rtibia 74.1715
rfoot 2.86975 10.4228
rtoes -42.0932
lfemur -32.4204 -6.82432 -36.4431
ltibia 38.5994
lfoot -17.0587 10.3767
ltoes 6.19023
5
root 2.89885 16.7216 -0.0486057 15.3166 4.98644 11.3444
lowerback -6.67386 1.68557 0.754262
upperback -1.75899 2.41052 -7.51464
thorax 2.28242 1.24123 -8.11463
lowerneck -1.75545 15.0329 5.60359
upperneck 47.4241 25.0813 -2.03268
head 20.0417 10.9907 2.24742
rclavicle -3.82164e-014 5.32743e-014
rhumerus -36.0112 5.58533 -94.1517
rradius 42.639
rwrist -35.8069
rhand -8.76125 -50.5968
rfingers 7.12502
rthumb 17.1762 -79.8576
lclavicle -3.82164e-014 5.32743e-014
lhumerus -27.7938 -20.7866 82.2231
lradius 42.1833
lwrist 72.6869
lhand -38.6142 -14.4416
lfingers 7.12502
lthumb -11.6316 15.2155
rfemur -50.9191 23.8564 -6.69371
rtibia 74.1661
rfoot 3.07371 10.3667
rtoes -41.3795
lfemur -32.3408 -6.74878 -36.4301
ltibia 38.5736
lfoot -17.0466 10.4716
ltoes 5.14912
6
root 2.89816 16.7217 -0.0496145 15.3475 4.96606 11.3166
lowerback -6.66386 1.70794 0.774709
upperback -1.81703 2.43577 -7.52498
thorax 2.22134 1.25173 -8.13618
lowerneck -1.67257 15.0179 5.72376
upperneck 47.445 25.0656 -2.06873
head 20.0698 11.0021 2.20861
rclavicle -4.28381e-014 5.1684e-015
rhumerus -36.1239 5.52126 -94.1877
rradius 42.6659
rwrist -35.8005
rhand -8.53927 -50.7354
rfingers 7.12502
rthumb 17.3899 -79.9775
lclavicle -4.28381e-014 5.1684e-015
lhumerus -27.8787 -20.821 82.2395
lradius 42.1999
lwrist 72.6912
lhand -38.8705 -13.7504
lfingers 7.12502
lthumb -11.8788 15.8926
rfemur -50.9817 23.8483 -6.69725
rtibia 74.1688
rfoot 3.09919 10.3878
rtoes -41.4276
lfemur -32.3972 -6.76596 -36.3959
ltibia 38.5883
lfoot -17.09 10.4625
ltoes 5.46389
7
root 2.89514 16.717 -0.0542231 15.3966 4.92255 11.3023
lowerback -6.67718 1.71801 0.733041
upperback -1.82301 2.45134 -7.50131
thorax 2.22209 1.25903 -8.08409
lowerneck -1.74255 15.022 5.72618
upperneck 47.4979 25.0865 -2.06671
head 20.1284 11.0025 2.22703
rclavicle -2.44008e-014 4.13472e-014
rhumerus -36.1284 5.66228 -94.2629
rradius 42.7559
rwrist -36.3239
rhand -9.64502 -50.0946
rfingers 7.12502
rthumb 16.3255 -79.4274
lclavicle -2.44008e-014 4.13472e-014
lhumerus -27.8493 -20.812 82.2766
lradius 42.1874
lwrist 72.5686
lhand -38.8172 -13.484
lfingers 7.12502
lthumb -11.8274 16.162
rfemur -51.1081 23.824 -6.71677
rtibia 74.1916
rfoot 2.95763 10.4509
rtoes -42.038
lfemur -32.525 -6.76376 -36.3652
ltibia 38.6342
lfoot -17.0849 10.4489
ltoes 5.7707
8
root 2.89282 16.7143 -0.0568347 15.3769 4.93026 11.2556
lowerback -6.63215 1.68947 0.745796
upperback -1.78139 2.41119 -7.4477
thorax 2.23254 1.23944 -8.0373
lowerneck -1.89453 15.0594 5.56932
upperneck 47.4811 25.1396 -2.01878
head 20.1131 10.9968 2.29095
rclavicle 9.49197e-015 -1.19271e-014
rhumerus -36.0755 5.93744 -94.3434
rradius 42.8251
rwrist -36.8573
rhand -11.6366 -48.2928
rfingers 7.12502
rthumb 14.4071 -77.7727
lclavicle 9.49197e-015 -1.19271e-014
lhumerus -27.8152 -20.7081 82.2768
lradius 42.2232
lwrist 72.4424
lhand -38.4098 -13.278
lfingers 7.12502
lthumb -11.4345 16.3902
rfemur -51.1067 23.8342 -6.64634
rtibia 74.1909
rfoot 2.84044 10.5747
rtoes -42.5502
lfemur -32.538 -6.76202 -36.3009
ltibia 38.6689
lfoot -17.0329 10.4871
ltoes 5.57605
9
root 2.89301 16.7165 -0.0526752 15.3303 4.97182 11.2428
lowerback -6.64426 1.67884 0.765359
upperback -1.74006 2.39768 -7.42282
thorax 2.28011 1.23436 -8.02228
lowerneck -1.91605 15.0742 5.54347
upperneck 47.438 25.1847 -2.07316
head 20.1015 11.0055 2.27841
rclavicle -1.86361e-014 1.23246e-014
rhumerus -36.019 5.89658 -94.2356
rradius 42.7339
rwrist -36.3025
rhand -11.4202 -47.6398
rfingers 7.12502
rthumb 14.6156 -77.1048
lclavicle -1.86361e-014 1.23246e-014
lhumerus -27.7473 -20.6499 82.2811
lradius 42.1438
lwrist 72.4516
lhand -38.1863 -13.607
lfingers 7.12502
lthumb -11.2189 16.0731
rfemur -50.9587 23.8681 -6.58163
rtibia 74.1198
rfoot 2.7484 10.6151
rtoes -42.7306
lfemur -32.368 -6.77961 -36.2847
ltibia 38.4937
lfoot -16.951 10.4846
ltoes 5.57968
10
root 2.89441 16.7191 -0.0458875 15.3237 4.9113 11.3272
lowerback -6.76059 1.72242 0.677251
upperback -1.73279 2.4681 -7.46593
thorax 2.36137 1.27149 -8.00862
lowerneck -1.81755 15.0371 5.66302
upperneck 47.4161 25.14 -2.14709
head 20.103 11.0052 2.21238
rclavicle -3.37437e-014 3.29983e-014
rhumerus -36.014 5.72125 -94.1463
rradius 42.632
rwrist -35.741
rhand -10.2906 -48.3961
rfingers 7.12502
rthumb 15.7038 -77.7789
lclavicle -3.37437e-014 3.29983e-014
lhumerus -27.7247 -20.7432 82.297
lradius 42.02
lwrist 72.5306
lhand -38.3774 -13.9177
lfingers 7.12502
lthumb -11.4033 15.7523
rfemur -50.884 23.9199 -6.68035
rtibia 74.082
rfoot 2.55645 10.6134
rtoes -43.0286
lfemur -32.3081 -6.72073 -36.4093
ltibia 38.4853
lfoot -17.0608 10.459
ltoes 5.88033
